<svg xmlns="http://www.w3.org/2000/svg" viewBox="0 0 223.14 139.59"><defs><style>.cls-1{fill:#fff;}</style></defs><title>Asset 4</title><g id="Layer_2" data-name="Layer 2"><g id="Layer_1-2" data-name="Layer 1"><polygon class="cls-1" points="31.27 108.31 31.27 63.45 92.31 63.45 92.31 75.38 43.45 75.38 43.45 96.13 88.78 96.13 88.78 108.31 31.27 108.31"/><path class="cls-1" d="M109.15,139.59H0V.16H94.7V43.61H31.27V31.51c7.16,0,17.36,0,30.36-.08,6.86-.05,9.89-.09,12-.12,2.27,0,3.41,0,7.17,0h1.75V12.34H12.18V127.4H140.5V35.6h39.94V47.78H152.68v91.81Z"/><path class="cls-1" d="M109.15,108.31V0h63.62c12.49,0,21.95,1.64,28.12,4.88A41.55,41.55,0,0,1,217,20a41.05,41.05,0,0,1,6.17,21.84,40,40,0,0,1-3.52,16.47c-3.26,7.74-8.84,13.5-15.61,18.59-9.64,7.24-29.83,6.56-45.42,6.72V71.45H183a29.16,29.16,0,0,0,19.82-9.19A28.67,28.67,0,0,0,211,41.9a28.86,28.86,0,0,0-4.26-15.23,29.46,29.46,0,0,0-11-10.69c-4.6-2.56-12.3-3.81-23.55-3.81H121.33v96.14Z"/></g></g></svg>