<?xml version="1.0" encoding="UTF-8"?>
<svg width="224px" height="140px" viewBox="0 0 224 140" version="1.1" xmlns="http://www.w3.org/2000/svg" xmlns:xlink="http://www.w3.org/1999/xlink">
    <!-- Generator: Sketch 50.2 (55047) - http://www.bohemiancoding.com/sketch -->
    <title>ep-white</title>
    <desc>Created with Sketch.</desc>
    <defs></defs>
    <g id="Page-1" stroke="none" stroke-width="1" fill="none" fill-rule="evenodd">
        <g id="ep-white" fill="#000000" fill-rule="nonzero">
            <polygon id="Shape" points="31.27 108.31 31.27 63.45 92.31 63.45 92.31 75.38 43.45 75.38 43.45 96.13 88.78 96.13 88.78 108.31"></polygon>
            <path d="M109.15,139.59 L0,139.59 L0,0.16 L94.7,0.16 L94.7,43.61 L31.27,43.61 L31.27,31.51 C38.43,31.51 48.63,31.51 61.63,31.43 C68.49,31.38 71.52,31.34 73.63,31.31 C75.9,31.31 77.04,31.31 80.8,31.31 L82.55,31.31 L82.55,12.34 L12.18,12.34 L12.18,127.4 L140.5,127.4 L140.5,35.6 L180.44,35.6 L180.44,47.78 L152.68,47.78 L152.68,139.59 L109.15,139.59 Z" id="Shape"></path>
            <path d="M109.15,108.31 L109.15,0 L172.77,0 C185.26,0 194.72,1.64 200.89,4.88 C207.526147,8.37373646 213.092965,13.5984599 217,20 C221.068189,26.5555283 223.206588,34.1248345 223.17,41.84 C223.178841,47.5175982 221.978913,53.1320311 219.65,58.31 C216.39,66.05 210.81,71.81 204.04,76.9 C194.4,84.14 174.21,83.46 158.62,83.62 L158.62,71.45 L183,71.45 C190.547941,71.0708056 197.653851,67.7759869 202.82,62.26 C208.13853,56.8264884 211.080937,49.5028454 211,41.9 C211.025776,36.5257102 209.550377,31.2509863 206.74,26.67 C204.081577,22.1978843 200.286263,18.5095297 195.74,15.98 C191.14,13.42 183.44,12.17 172.19,12.17 L121.33,12.17 L121.33,108.31 L109.15,108.31 Z" id="Shape"></path>
        </g>
    </g>
</svg>