<svg xmlns="http://www.w3.org/2000/svg" viewBox="0 0 782 274.11"><defs><style>.cls-1{fill:#fff;}</style></defs><title>logo</title><g id="Layer_2" data-name="Layer 2"><g id="Layer_1-2" data-name="Layer 1"><polygon class="cls-1" points="310.7 108.31 310.7 63.45 371.74 63.45 371.74 75.38 322.88 75.38 322.88 96.13 368.21 96.13 368.21 108.31 310.7 108.31"/><path class="cls-1" d="M388.58,139.59H279.43V.16h94.7V43.61H310.7V31.51c7.16,0,17.35,0,30.36-.08,6.86-.05,9.89-.09,12-.12,2.27,0,3.41,0,7.17,0H362V12.34H291.61V127.4H419.93V35.6h39.94V47.78H432.11v91.81Z"/><path class="cls-1" d="M388.58,108.31V0H452.2c12.49,0,21.95,1.64,28.12,4.88A41.55,41.55,0,0,1,496.4,20a41.05,41.05,0,0,1,6.17,21.84,40,40,0,0,1-3.52,16.47c-3.26,7.74-8.84,13.5-15.61,18.59-9.64,7.24-29.83,6.56-45.42,6.72V71.45H462.4a29.16,29.16,0,0,0,19.82-9.19,28.67,28.67,0,0,0,8.17-20.36,28.86,28.86,0,0,0-4.26-15.23,29.54,29.54,0,0,0-11-10.69c-4.6-2.56-12.3-3.81-23.55-3.81H400.76v96.14Z"/><path class="cls-1" d="M0,184.24H27.87v5.91H6.61v9.77H25.46v5.91H6.61v10.1H28.14v5.9H0Z"/><path class="cls-1" d="M46.44,217l22.19-26.86H47.14v-5.85H77.22v4.89L55,216H77.22v5.85H46.44Z"/><path class="cls-1" d="M97.29,184.24h27.88v5.91H103.9v9.77h18.85v5.91H103.9v10.1h21.53v5.9H97.29Z"/><path class="cls-1" d="M145.46,184.24h6.6v37.59h-6.6Z"/><path class="cls-1" d="M173.91,184.24h6.61v18.9l17.88-18.9h8.11L190.88,200.4l16.33,21.43h-8l-12.84-16.91-5.85,6v10.9h-6.61Z"/><path class="cls-1" d="M224.65,184.24h27.88v5.91H231.26v9.77h18.85v5.91H231.26v10.1h21.53v5.9H224.65Z"/><path class="cls-1" d="M272.44,184.24h6.61v31.58h19.76v6H272.44Z"/><path class="cls-1" d="M344.33,184.24h14.83c8.75,0,14.28,5,14.28,12.67,0,8.44-6.76,12.84-15,12.84h-7.47v12.08h-6.61Zm14.29,19.55c5,0,8.11-2.79,8.11-6.82,0-4.41-3.17-6.72-8.11-6.72h-7.68v13.54Z"/><path class="cls-1" d="M392,184.24h27.88v5.91H398.62v9.77h18.85v5.91H398.62v10.1h21.54v5.9H392Z"/><path class="cls-1" d="M439.8,184.24h7L458.28,202l11.44-17.78h7v37.59h-6.6v-27L458.28,212.6h-.22L446.3,195v26.85h-6.5Z"/><path class="cls-1" d="M498.22,184.24h16.86c4.3,0,7.68,1.18,9.83,3.33a8.48,8.48,0,0,1,2.53,6.34c0,4.51-2.58,6.92-5.37,8.37,4.4,1.51,7.46,4,7.46,9.24,0,6.72-5.53,10.31-13.91,10.31h-17.4Zm15.52,15.84c4.24,0,7.09-1.66,7.09-5.21,0-3-2.36-4.78-6.61-4.78h-9.5v10Zm1.93,15.9c4.52,0,7.25-1.77,7.25-5.26,0-3.17-2.52-5.05-7.73-5.05H504.72V216Z"/><path class="cls-1" d="M548.8,184.24h27.87v5.91H555.41v9.77h18.85v5.91H555.41v10.1h21.53v5.9H548.8Z"/><path class="cls-1" d="M596.59,184.24h16.75c8.81,0,14,4.73,14,12,0,6.17-3.71,9.88-9,11.38l10.15,14.23H620.7l-9.34-13.1h-8.17v13.1h-6.6Zm16.27,18.63c4.73,0,7.74-2.47,7.74-6.39s-2.91-6.23-7.79-6.23h-9.62v12.62Z"/><path class="cls-1" d="M656.46,190.36H644.53v-6.12H675v6.12H663.12v31.47h-6.66Z"/><path class="cls-1" d="M690.12,203a19.66,19.66,0,1,1,19.6,19.44A19.27,19.27,0,0,1,690.12,203Zm32.39,0c0-7.31-5.32-13.38-12.79-13.38s-12.67,6-12.67,13.38,5.32,13.37,12.78,13.37S722.51,210.45,722.51,203Z"/><path class="cls-1" d="M749.24,184.24h6.12l20.14,26v-26H782v37.59h-5.53l-20.73-26.74v26.74h-6.5Z"/><path class="cls-1" d="M207.21,252.67h7.89c4.75,0,7.89,2.53,7.89,6.75,0,4.54-3.8,6.89-8.28,6.89h-5.12v7.44h-2.38Zm7.59,11.47c3.49,0,5.78-1.86,5.78-4.69,0-3-2.26-4.58-5.66-4.58h-5.33v9.27Z"/><path class="cls-1" d="M240,252.67h2.38V262h12.16v-9.37h2.38v21.08h-2.38v-9.48H242.35v9.48H240Z"/><path class="cls-1" d="M274.56,263.21a10.75,10.75,0,1,1,10.72,10.9A10.68,10.68,0,0,1,274.56,263.21Zm19,0a8.38,8.38,0,0,0-8.31-8.7c-4.82,0-8.25,3.85-8.25,8.7a8.38,8.38,0,0,0,8.31,8.7C290.16,271.91,293.59,268.06,293.59,263.21Z"/><path class="cls-1" d="M317.86,254.87h-7.08v-2.2h16.56v2.2h-7.08v18.88h-2.4Z"/><path class="cls-1" d="M342.06,263.21a10.75,10.75,0,1,1,10.72,10.9A10.68,10.68,0,0,1,342.06,263.21Zm19,0a8.38,8.38,0,0,0-8.31-8.7c-4.82,0-8.25,3.85-8.25,8.7a8.38,8.38,0,0,0,8.31,8.7C357.66,271.91,361.09,268.06,361.09,263.21Z"/><path class="cls-1" d="M380.3,263.21c0-5.78,4.24-10.9,10.57-10.9a11.1,11.1,0,0,1,7.85,2.8l-1.53,1.81a9,9,0,0,0-6.41-2.41c-4.67,0-8,3.94-8,8.7,0,5,3.22,8.76,8.34,8.76a9.89,9.89,0,0,0,6.08-2.11v-5.23h-6.41v-2.14h8.7v8.4a12.81,12.81,0,0,1-8.46,3.22C384.39,274.11,380.3,269.29,380.3,263.21Z"/><path class="cls-1" d="M417.48,252.67h9.06a8.36,8.36,0,0,1,6,2.11,5.89,5.89,0,0,1,1.62,4.22c0,3.49-2.41,5.54-5.72,6.14l6.47,8.61H432l-6.11-8.19h-6v8.19h-2.38Zm8.85,10.75c3.17,0,5.42-1.62,5.42-4.39,0-2.59-2-4.16-5.39-4.16h-6.5v8.55Z"/><path class="cls-1" d="M459.69,252.52h2.23l9.61,21.23H469l-2.47-5.57H455l-2.5,5.57h-2.44ZM465.56,266l-4.78-10.75L456,266Z"/><path class="cls-1" d="M488.33,252.67h7.88c4.76,0,7.89,2.53,7.89,6.75,0,4.54-3.79,6.89-8.28,6.89H490.7v7.44h-2.37Zm7.58,11.47c3.5,0,5.78-1.86,5.78-4.69,0-3-2.25-4.58-5.66-4.58H490.7v9.27Z"/><path class="cls-1" d="M521.08,252.67h2.38V262h12.17v-9.37H538v21.08h-2.37v-9.48H523.46v9.48h-2.38Z"/><path class="cls-1" d="M563.2,265.41l-8.76-12.74h2.89l7.11,10.54,7.16-10.54h2.77l-8.76,12.71v8.37H563.2Z"/></g></g></svg>